HIERARCHY
ROOT Hips
{
	OFFSET 0.000000 0.000000 0.000000
	CHANNELS 6 Xposition Yposition Zposition Zrotation Yrotation Xrotation 
	JOINT LHipJoint
	{
		OFFSET 0.000000 0.000000 0.000000
		CHANNELS 3 Zrotation Yrotation Xrotation
		JOINT LeftUpLeg
		{
			OFFSET 1.363060 -1.794630 0.839290
			CHANNELS 3 Zrotation Yrotation Xrotation
			JOINT LeftLeg
			{
				OFFSET 2.448110 -6.726130 0.000000
				CHANNELS 3 Zrotation Yrotation Xrotation
				JOINT LeftFoot
				{
					OFFSET 2.562200 -7.039590 0.000000
					CHANNELS 3 Zrotation Yrotation Xrotation
					JOINT LeftToeBase
					{
						OFFSET 0.157640 -0.433110 2.322550
						CHANNELS 3 Zrotation Yrotation Xrotation
						End Site
						{
							OFFSET 0.000000 0.000000 0.000000
						}
					}
				}
			}
		}
	}
	JOINT RHipJoint
	{
		OFFSET 0.000000 0.000000 0.000000
		CHANNELS 3 Zrotation Yrotation Xrotation
		JOINT RightUpLeg
		{
			OFFSET -1.305520 -1.794630 0.839290
			CHANNELS 3 Zrotation Yrotation Xrotation
			JOINT RightLeg
			{
				OFFSET -2.542530 -6.985550 0.000000
				CHANNELS 3 Zrotation Yrotation Xrotation
				JOINT RightFoot
				{
					OFFSET -2.568260 -7.056230 0.000000
					CHANNELS 3 Zrotation Yrotation Xrotation
					JOINT RightToeBase
					{
						OFFSET -0.164730 -0.452590 2.363150
						CHANNELS 3 Zrotation Yrotation Xrotation
						End Site
						{
							OFFSET 0.000000 0.000000 0.000000
						}
					}
				}
			}
		}
	}
	JOINT LowerBack
	{
		OFFSET 0.000000 0.000000 0.000000
		CHANNELS 3 Zrotation Yrotation Xrotation
		JOINT Spine
		{
			OFFSET 0.028270 2.035590 -0.193380
			CHANNELS 3 Zrotation Yrotation Xrotation
			JOINT Spine1
			{
				OFFSET 0.056720 2.048850 -0.042750
				CHANNELS 3 Zrotation Yrotation Xrotation
				JOINT Neck
				{
					OFFSET 0.000000 0.000000 0.000000
					CHANNELS 3 Zrotation Yrotation Xrotation
					JOINT Neck1
					{
						OFFSET -0.054170 1.746240 0.172020
						CHANNELS 3 Zrotation Yrotation Xrotation
						JOINT Head
						{
							OFFSET 0.104070 1.761360 -0.123970
							CHANNELS 3 Zrotation Yrotation Xrotation
							End Site
							{
								OFFSET 0.000000 0.000000 0.000000
							}
						}
					}
				}
				JOINT LeftShoulder
				{
					OFFSET 0.000000 0.000000 0.000000
					CHANNELS 3 Zrotation Yrotation Xrotation
					JOINT LeftArm
					{
						OFFSET 3.362410 1.200890 -0.311210
						CHANNELS 3 Zrotation Yrotation Xrotation
						JOINT LeftForeArm
						{
							OFFSET 4.983000 -0.000000 -0.000000
							CHANNELS 3 Zrotation Yrotation Xrotation
							JOINT LeftHand
							{
								OFFSET 3.483560 -0.000000 -0.000000
								CHANNELS 3 Zrotation Yrotation Xrotation
								JOINT LeftFingerBase
								{
									OFFSET 0.000000 0.000000 0.000000
									CHANNELS 3 Zrotation Yrotation Xrotation
									JOINT LeftHandIndex1
									{
										OFFSET 0.715260 -0.000000 -0.000000
										CHANNELS 3 Zrotation Yrotation Xrotation
										End Site
										{
											OFFSET 0.000000 0.000000 0.000000
										}
									}
								}
								JOINT LThumb
								{
									OFFSET 0.000000 0.000000 0.000000
									CHANNELS 3 Zrotation Yrotation Xrotation
									End Site
									{
										OFFSET 0.000000 0.000000 0.000000
									}
								}
							}
						}
					}
				}
				JOINT RightShoulder
				{
					OFFSET 0.000000 0.000000 0.000000
					CHANNELS 3 Zrotation Yrotation Xrotation
					JOINT RightArm
					{
						OFFSET -3.136600 1.374050 -0.404650
						CHANNELS 3 Zrotation Yrotation Xrotation
						JOINT RightForeArm
						{
							OFFSET -5.241900 -0.000000 -0.000000
							CHANNELS 3 Zrotation Yrotation Xrotation
							JOINT RightHand
							{
								OFFSET -3.444170 -0.000000 -0.000000
								CHANNELS 3 Zrotation Yrotation Xrotation
								JOINT RightFingerBase
								{
									OFFSET 0.000000 0.000000 0.000000
									CHANNELS 3 Zrotation Yrotation Xrotation
									JOINT RightHandIndex1
									{
										OFFSET -0.622530 -0.000000 -0.000000
										CHANNELS 3 Zrotation Yrotation Xrotation
										End Site
										{
											OFFSET 0.000000 0.000000 0.000000
										}
									}
								}
								JOINT RThumb
								{
									OFFSET 0.000000 0.000000 0.000000
									CHANNELS 3 Zrotation Yrotation Xrotation
									End Site
									{
										OFFSET 0.000000 0.000000 0.000000
									}
								}
							}
						}
					}
				}
			}
		}
	}
}
MOTION
Frames: 6
Frame Time: 0.008333
-9.735494 16.691599 -0.325674 6.722815 87.263737 26.260851 -9.391779 -0.643193 2.390363 -10.166678 -6.698676 -47.603919 -1.732862 0.854105 23.752198 0.721114 4.157824 4.291633 1.288700 -0.000000 -25.943400 10.170750 -3.051555 -2.577804 3.128913 -7.136212 -1.767419 1.620703 -2.196902 26.585931 0.953268 12.371879 8.553132 3.008500 0.000001 -84.734200 -7.220964 0.254053 1.250138 -2.146923 0.657360 -2.400026 -5.604907 0.618498 1.971141 8.025514 -4.448653 -5.780932 -2.965831 -0.239664 0.335106 0.000000 0.000000 0.000000 -8.388092 14.635562 1.818018 -58.538614 11.215065 4.137663 -4.597346 -22.718933 -0.019473 -8.097399 3.974029 -0.282405 -0.126393 -0.076149 -0.000000 0.000000 0.000000 0.000000 0.000000 0.000000 0.000000 11.941287 -0.724293 0.861031 40.442447 24.280157 12.912386 1.237862 63.920588 0.020294 5.410854 10.482422 0.514810 -0.040089 -0.289050 -0.000000 0.000000 0.000000 0.000000 0.000000 0.000000 0.000000 
-9.541517 16.706261 -0.335168 10.661239 87.270033 30.095516 -9.338386 -0.680061 2.258074 -10.597879 -6.634144 -47.177298 -1.714288 0.882302 24.945829 0.778240 4.433827 3.224846 1.255500 -0.000000 -24.890300 10.425704 -3.143833 -2.606916 2.473690 -7.623939 -2.915865 1.372136 -2.466013 29.230545 0.839084 12.769395 10.842598 3.643900 0.000001 -84.734800 -7.593440 0.148221 1.364416 -2.237139 0.571010 -2.386070 -5.694500 0.532997 1.939700 8.157707 -4.424483 -5.733860 -3.023382 -0.244036 0.341144 0.000000 0.000000 0.000000 -8.281455 14.395817 1.842703 -58.641052 10.713049 4.108242 -4.599238 -22.618483 -0.018950 -8.058440 3.981692 -0.281295 -0.125615 -0.073191 -0.000000 0.000000 0.000000 0.000000 0.000000 0.000000 0.000000 12.292760 -0.767534 0.822888 41.304437 23.741447 13.253815 1.269270 63.646976 0.020200 5.318807 10.546719 0.508729 -0.036434 -0.285816 -0.000000 0.000000 0.000000 0.000000 0.000000 0.000000 0.000000 
-9.350782 16.722795 -0.346764 13.274538 87.190668 32.584815 -9.275589 -0.677895 2.127749 -11.023601 -6.505058 -46.631469 -1.713773 0.898127 25.935983 0.841164 4.705107 2.050814 1.198700 0.000000 -24.304500 10.670083 -3.178404 -2.644966 1.873144 -8.099741 -4.105692 1.107885 -2.698548 31.925179 0.686180 12.891446 13.165178 4.239900 -0.000000 -83.977900 -7.903134 0.068402 1.490640 -2.315827 0.507009 -2.370955 -5.781784 0.469973 1.906016 8.255626 -4.386538 -5.677039 -3.080264 -0.248429 0.349922 0.000000 0.000000 0.000000 -8.189888 14.150624 1.863140 -58.740029 10.171444 4.147365 -4.596821 -22.562714 -0.018379 -8.014402 3.974040 -0.279082 -0.124656 -0.070254 -0.000000 0.000000 0.000000 0.000000 0.000000 0.000000 0.000000 12.605974 -0.790825 0.786707 42.177780 23.210501 13.612695 1.303593 63.282225 0.020107 5.238501 10.600272 0.503046 -0.032941 -0.282028 -0.000000 0.000000 0.000000 0.000000 0.000000 0.000000 0.000000 
-9.163149 16.741179 -0.360529 14.874519 87.051009 34.048802 -9.219663 -0.650532 2.003416 -11.430193 -6.331279 -45.977869 -1.727636 0.902440 26.721408 0.905395 4.952785 0.834421 1.119301 0.000000 -24.128300 10.887165 -3.164592 -2.689594 1.340880 -8.548135 -5.330163 0.840661 -2.896897 34.641690 0.499572 12.670722 15.437053 4.718200 -0.000000 -82.454100 -8.159472 0.006101 1.621464 -2.383201 0.457570 -2.354858 -5.864669 0.421507 1.873370 8.321673 -4.341675 -5.613745 -3.135357 -0.252722 0.360698 0.000000 0.000000 0.000000 -8.113744 13.907339 1.879351 -58.831250 9.583786 4.266508 -4.590291 -22.558526 -0.017743 -7.959033 3.946287 -0.274968 -0.123559 -0.067320 -0.000000 0.000000 0.000000 0.000000 0.000000 0.000000 0.000000 12.880976 -0.805796 0.751771 43.057228 22.696984 13.993849 1.340928 62.821040 0.020010 5.171922 10.633748 0.497762 -0.029624 -0.277522 -0.000000 0.000000 0.000000 0.000000 0.000000 0.000000 0.000000 
-8.978527 16.761515 -0.376293 15.735295 86.873061 34.767459 -9.176564 -0.607401 1.887379 -11.807228 -6.129281 -45.228585 -1.752223 0.895668 27.305904 0.966400 5.162469 -0.361731 1.022200 -0.000001 -24.275600 11.072265 -3.111094 -2.738434 0.885225 -8.959129 -6.582905 0.581602 -3.065366 37.351976 0.286199 12.062718 17.567601 4.999800 0.000000 -80.255800 -8.365007 -0.045321 1.751800 -2.438912 0.416380 -2.338798 -5.942260 0.381132 1.840422 8.358235 -4.287203 -5.542886 -3.187610 -0.256859 0.373918 0.000000 0.000000 0.000000 -8.051972 13.658895 1.892708 -58.909835 8.964264 4.465461 -4.579825 -22.623612 -0.017043 -7.890171 3.896513 -0.269051 -0.122364 -0.064412 -0.000000 0.000000 0.000000 0.000000 0.000000 0.000000 0.000000 13.114100 -0.812321 0.717950 43.948459 22.190426 14.390666 1.381529 62.264906 0.019922 5.127890 10.636580 0.493176 -0.026565 -0.272159 -0.000000 0.000000 0.000000 0.000000 0.000000 0.000000 0.000000 
-8.796756 16.783979 -0.393528 16.206895 86.678236 35.093870 -9.142144 -0.555101 1.779439 -12.157791 -5.918977 -44.386943 -1.784512 0.876648 27.691078 1.020954 5.332508 -1.479553 0.916700 -0.000000 -24.638800 11.232613 -3.026457 -2.790126 0.497617 -9.331932 -7.856501 0.339927 -3.210979 40.027445 0.053638 11.058372 19.466303 5.024601 -0.000000 -77.582200 -8.528694 -0.093393 1.881053 -2.484638 0.376551 -2.321681 -6.014806 0.342045 1.810334 8.374789 -4.231267 -5.469287 -3.236765 -0.260760 0.388168 0.000000 0.000000 0.000000 -7.995720 13.413117 1.903944 -58.970937 8.303016 4.751539 -4.566015 -22.762366 -0.016273 -7.805761 3.822763 -0.260930 -0.121116 -0.061486 -0.000000 0.000000 0.000000 0.000000 0.000000 0.000000 0.000000 13.316881 -0.821666 0.685073 44.845460 21.697698 14.804072 1.425277 61.616542 0.019832 5.107108 10.600553 0.488988 -0.023765 -0.265860 -0.000000 0.000000 0.000000 0.000000 0.000000 0.000000 0.000000 
